<svg width="60" height="60" viewBox="0 0 60 60" fill="none" xmlns="http://www.w3.org/2000/svg">
<g clip-path="url(#clip0_1804_14047)">
<path d="M29.9922 59.0754C46.5607 59.0754 59.9922 45.8636 59.9922 29.5668C59.9922 13.2698 46.5607 0.0585938 29.9922 0.0585938C13.4237 0.0585938 -0.0078125 13.2698 -0.0078125 29.5668C-0.0078125 45.8636 13.4237 59.0754 29.9922 59.0754Z" fill="#1A1A1A"/>
<path opacity="0.5" d="M38.973 29.569L52.193 42.5722C49.993 46.2017 46.893 49.241 43.213 51.4148L29.993 38.4116L16.773 51.4148C13.083 49.2508 9.99297 46.2017 7.79297 42.582L21.013 29.5788L7.79297 16.5755C9.99297 12.946 13.093 9.90668 16.783 7.74274L30.003 20.746L43.213 7.74274C46.903 9.90668 49.993 12.9559 52.203 16.5854L38.983 29.5788L38.973 29.569Z" fill="url(#paint0_radial_1804_14047)"/>
<path d="M46.1727 29.5699C46.1727 30.229 46.1327 30.888 46.0527 31.5273C37.2227 33.3863 29.8827 37.6257 23.9127 44.3244C23.1127 44.0097 22.3327 43.6261 21.6027 43.1835C24.7327 39.5044 28.4127 36.4749 32.5127 33.9175C27.4927 35.4322 22.7527 37.4486 18.7527 41.029C18.1527 40.4585 17.5927 39.8486 17.0927 39.1896C21.8727 35.0093 27.5527 32.6781 33.5027 30.829H13.8527C13.8227 30.4158 13.8027 29.9929 13.8027 29.5699C13.8027 29.147 13.8227 28.7142 13.8527 28.3011H33.5827C27.6227 26.4716 21.9027 24.1503 17.0927 19.9503C17.6127 19.2814 18.1727 18.6618 18.7927 18.0814C22.8527 21.7208 27.6927 23.7372 32.7727 25.3109C28.5727 22.7831 24.8027 19.7536 21.5827 15.9667C22.3227 15.524 23.0927 15.1404 23.9027 14.8158C29.8727 21.5142 37.2127 25.7536 46.0427 27.6126C46.1228 28.2519 46.1627 28.9109 46.1627 29.5699H46.1727Z" fill="white"/>
<path d="M21.1812 47.0609L16.7712 51.3986C13.0812 49.2347 9.99125 46.1855 7.78125 42.5658L12.1912 38.2282C14.1212 42.0544 17.2912 45.1724 21.1812 47.0609Z" fill="#FF0000"/>
<path d="M16.783 7.72746L21.193 12.0652C17.303 13.9635 14.133 17.0717 12.203 20.898L7.79297 16.5603C9.99297 12.9307 13.093 9.8914 16.783 7.71763V7.72746Z" fill="#FF0000"/>
<path d="M38.8008 12.0721L43.2109 7.73438C46.9009 9.89831 49.9908 12.9475 52.2008 16.577L47.7909 20.9147C45.8609 17.0885 42.7008 13.9704 38.8108 12.0721H38.8008Z" fill="#FF0000"/>
<path d="M47.7809 38.2282L52.1908 42.5658C49.9908 46.1954 46.8909 49.2347 43.2109 51.4085L38.8008 47.0708C42.6908 45.1724 45.8609 42.0544 47.7809 38.2282Z" fill="#FF0000"/>
</g>
<defs>
<radialGradient id="paint0_radial_1804_14047" cx="0" cy="0" r="1" gradientUnits="userSpaceOnUse" gradientTransform="translate(29.993 29.569) scale(22.2 21.8361)">
<stop stop-color="#1A1A1A"/>
<stop offset="0.81" stop-color="#FF0000"/>
</radialGradient>
<clipPath id="clip0_1804_14047">
<rect width="60" height="60" fill="white"/>
</clipPath>
</defs>
</svg>
