<svg width="1248" height="73" viewBox="0 0 1248 73" fill="none" xmlns="http://www.w3.org/2000/svg">
<g clip-path="url(#clip0_2088_5362)">
<rect width="1248" height="73" rx="24" fill="white"/>
<rect width="1248" height="73" rx="24" fill="url(#paint0_linear_2088_5362)"/>
<path d="M25.656 43V30.22H33.684V31.732H27.204V35.854H33.468V37.33H27.204V41.488H33.828V43H25.656ZM35.1468 43L38.6568 38.104L35.3268 33.46H37.0908L39.5928 37.06L42.0228 33.46H43.8228L40.5288 38.14L43.9848 43H42.2208L39.5928 39.148L36.9468 43H35.1468ZM45.5142 45.7V33.46H46.9182L46.9542 35.512L46.7382 35.404C46.9782 34.696 47.3742 34.162 47.9262 33.802C48.4902 33.43 49.1382 33.244 49.8702 33.244C50.8182 33.244 51.5922 33.478 52.1922 33.946C52.8042 34.414 53.2542 35.026 53.5422 35.782C53.8422 36.538 53.9922 37.354 53.9922 38.23C53.9922 39.106 53.8422 39.922 53.5422 40.678C53.2542 41.434 52.8042 42.046 52.1922 42.514C51.5922 42.982 50.8182 43.216 49.8702 43.216C49.3782 43.216 48.9162 43.132 48.4842 42.964C48.0642 42.796 47.7042 42.562 47.4042 42.262C47.1162 41.962 46.9182 41.608 46.8102 41.2L47.0262 40.948V45.7H45.5142ZM49.7262 41.776C50.5542 41.776 51.2082 41.464 51.6882 40.84C52.1682 40.216 52.4082 39.346 52.4082 38.23C52.4082 37.114 52.1682 36.244 51.6882 35.62C51.2082 34.996 50.5542 34.684 49.7262 34.684C49.1742 34.684 48.6942 34.816 48.2862 35.08C47.8902 35.344 47.5782 35.74 47.3502 36.268C47.1342 36.796 47.0262 37.45 47.0262 38.23C47.0262 39.01 47.1342 39.664 47.3502 40.192C47.5662 40.72 47.8782 41.116 48.2862 41.38C48.6942 41.644 49.1742 41.776 49.7262 41.776ZM58.0034 43C57.4514 43 57.0014 42.856 56.6534 42.568C56.3054 42.28 56.1314 41.824 56.1314 41.2V30.22H57.6434V41.074C57.6434 41.266 57.6914 41.416 57.7874 41.524C57.8954 41.62 58.0454 41.668 58.2374 41.668H59.0654V43H58.0034ZM64.5508 43.216C63.6748 43.216 62.9068 43.012 62.2468 42.604C61.5868 42.196 61.0768 41.62 60.7168 40.876C60.3568 40.12 60.1768 39.238 60.1768 38.23C60.1768 37.21 60.3568 36.328 60.7168 35.584C61.0768 34.84 61.5868 34.264 62.2468 33.856C62.9068 33.448 63.6748 33.244 64.5508 33.244C65.4268 33.244 66.1888 33.448 66.8368 33.856C67.4968 34.264 68.0068 34.84 68.3668 35.584C68.7268 36.328 68.9068 37.21 68.9068 38.23C68.9068 39.238 68.7268 40.12 68.3668 40.876C68.0068 41.62 67.4968 42.196 66.8368 42.604C66.1888 43.012 65.4268 43.216 64.5508 43.216ZM64.5508 41.776C65.4268 41.776 66.1048 41.464 66.5848 40.84C67.0768 40.204 67.3228 39.334 67.3228 38.23C67.3228 37.126 67.0768 36.262 66.5848 35.638C66.1048 35.002 65.4268 34.684 64.5508 34.684C63.6748 34.684 62.9908 35.002 62.4988 35.638C62.0068 36.262 61.7608 37.126 61.7608 38.23C61.7608 39.334 62.0068 40.204 62.4988 40.84C62.9908 41.464 63.6748 41.776 64.5508 41.776ZM70.9673 43V33.46H72.2993L72.3713 35.872L72.2273 35.818C72.3473 35.002 72.6053 34.408 73.0013 34.036C73.4093 33.652 73.9493 33.46 74.6213 33.46H75.5573V34.9H74.6393C74.1593 34.9 73.7573 34.99 73.4333 35.17C73.1213 35.338 72.8813 35.596 72.7133 35.944C72.5573 36.28 72.4793 36.712 72.4793 37.24V43H70.9673ZM80.793 43.216C79.893 43.216 79.113 43.012 78.453 42.604C77.805 42.196 77.301 41.62 76.941 40.876C76.593 40.12 76.419 39.238 76.419 38.23C76.419 37.222 76.593 36.346 76.941 35.602C77.301 34.858 77.799 34.282 78.435 33.874C79.083 33.454 79.845 33.244 80.721 33.244C81.549 33.244 82.281 33.442 82.917 33.838C83.553 34.222 84.045 34.786 84.393 35.53C84.753 36.274 84.933 37.18 84.933 38.248V38.698H78.003C78.063 39.718 78.333 40.486 78.813 41.002C79.305 41.518 79.965 41.776 80.793 41.776C81.417 41.776 81.927 41.632 82.323 41.344C82.731 41.044 83.013 40.654 83.169 40.174L84.789 40.3C84.537 41.152 84.057 41.854 83.349 42.406C82.653 42.946 81.801 43.216 80.793 43.216ZM78.003 37.366H83.277C83.205 36.442 82.935 35.764 82.467 35.332C82.011 34.9 81.429 34.684 80.721 34.684C79.989 34.684 79.383 34.912 78.903 35.368C78.435 35.812 78.135 36.478 78.003 37.366ZM213.819 43C212.955 43 212.313 42.802 211.893 42.406C211.485 42.01 211.281 41.392 211.281 40.552V31.228H212.793V40.516C212.793 40.948 212.889 41.248 213.081 41.416C213.273 41.584 213.567 41.668 213.963 41.668H215.331V43H213.819ZM209.877 34.792V33.46H215.331V34.792H209.877ZM220.82 43.216C219.944 43.216 219.176 43.012 218.516 42.604C217.856 42.196 217.346 41.62 216.986 40.876C216.626 40.12 216.446 39.238 216.446 38.23C216.446 37.21 216.626 36.328 216.986 35.584C217.346 34.84 217.856 34.264 218.516 33.856C219.176 33.448 219.944 33.244 220.82 33.244C221.696 33.244 222.458 33.448 223.106 33.856C223.766 34.264 224.276 34.84 224.636 35.584C224.996 36.328 225.176 37.21 225.176 38.23C225.176 39.238 224.996 40.12 224.636 40.876C224.276 41.62 223.766 42.196 223.106 42.604C222.458 43.012 221.696 43.216 220.82 43.216ZM220.82 41.776C221.696 41.776 222.374 41.464 222.854 40.84C223.346 40.204 223.592 39.334 223.592 38.23C223.592 37.126 223.346 36.262 222.854 35.638C222.374 35.002 221.696 34.684 220.82 34.684C219.944 34.684 219.26 35.002 218.768 35.638C218.276 36.262 218.03 37.126 218.03 38.23C218.03 39.334 218.276 40.204 218.768 40.84C219.26 41.464 219.944 41.776 220.82 41.776ZM235.531 45.916C234.847 45.916 234.229 45.802 233.677 45.574C233.125 45.346 232.663 45.022 232.291 44.602C231.919 44.182 231.667 43.696 231.535 43.144L233.119 43.036C233.263 43.48 233.515 43.828 233.875 44.08C234.247 44.344 234.799 44.476 235.531 44.476C236.395 44.476 237.055 44.302 237.511 43.954C237.979 43.606 238.213 43.084 238.213 42.388V40.84C237.985 41.344 237.619 41.746 237.115 42.046C236.611 42.346 236.047 42.496 235.423 42.496C234.619 42.496 233.899 42.298 233.263 41.902C232.639 41.506 232.147 40.96 231.787 40.264C231.439 39.568 231.265 38.77 231.265 37.87C231.265 36.958 231.439 36.16 231.787 35.476C232.135 34.78 232.615 34.234 233.227 33.838C233.851 33.442 234.559 33.244 235.351 33.244C236.023 33.244 236.623 33.4 237.151 33.712C237.691 34.024 238.069 34.444 238.285 34.972V33.46H239.725V42.352C239.725 43.096 239.557 43.732 239.221 44.26C238.885 44.8 238.405 45.208 237.781 45.484C237.157 45.772 236.407 45.916 235.531 45.916ZM235.495 41.056C236.311 41.056 236.965 40.774 237.457 40.21C237.949 39.634 238.201 38.854 238.213 37.87C238.225 37.21 238.117 36.646 237.889 36.178C237.673 35.698 237.355 35.332 236.935 35.08C236.527 34.816 236.047 34.684 235.495 34.684C234.655 34.684 234.001 34.972 233.533 35.548C233.077 36.112 232.849 36.886 232.849 37.87C232.849 38.854 233.083 39.634 233.551 40.21C234.031 40.774 234.679 41.056 235.495 41.056ZM246.15 43.216C245.25 43.216 244.47 43.012 243.81 42.604C243.162 42.196 242.658 41.62 242.298 40.876C241.95 40.12 241.776 39.238 241.776 38.23C241.776 37.222 241.95 36.346 242.298 35.602C242.658 34.858 243.156 34.282 243.792 33.874C244.44 33.454 245.202 33.244 246.078 33.244C246.906 33.244 247.638 33.442 248.274 33.838C248.91 34.222 249.402 34.786 249.75 35.53C250.11 36.274 250.29 37.18 250.29 38.248V38.698H243.36C243.42 39.718 243.69 40.486 244.17 41.002C244.662 41.518 245.322 41.776 246.15 41.776C246.774 41.776 247.284 41.632 247.68 41.344C248.088 41.044 248.37 40.654 248.526 40.174L250.146 40.3C249.894 41.152 249.414 41.854 248.706 42.406C248.01 42.946 247.158 43.216 246.15 43.216ZM243.36 37.366H248.634C248.562 36.442 248.292 35.764 247.824 35.332C247.368 34.9 246.786 34.684 246.078 34.684C245.346 34.684 244.74 34.912 244.26 35.368C243.792 35.812 243.492 36.478 243.36 37.366ZM255.461 43C254.597 43 253.955 42.802 253.535 42.406C253.127 42.01 252.923 41.392 252.923 40.552V31.228H254.435V40.516C254.435 40.948 254.531 41.248 254.723 41.416C254.915 41.584 255.209 41.668 255.605 41.668H256.973V43H255.461ZM251.519 34.792V33.46H256.973V34.792H251.519ZM265.462 43V33.532H262.798V32.2H263.878C264.346 32.2 264.718 32.14 264.994 32.02C265.282 31.9 265.486 31.696 265.606 31.408C265.726 31.12 265.786 30.724 265.786 30.22H267.01V43H265.462ZM274.769 43.288C273.737 43.288 272.843 43.018 272.087 42.478C271.331 41.938 270.743 41.17 270.323 40.174C269.915 39.178 269.711 37.996 269.711 36.628C269.711 35.26 269.915 34.078 270.323 33.082C270.743 32.074 271.331 31.3 272.087 30.76C272.843 30.208 273.737 29.932 274.769 29.932C275.813 29.932 276.713 30.208 277.469 30.76C278.225 31.3 278.807 32.068 279.215 33.064C279.635 34.06 279.845 35.248 279.845 36.628C279.845 37.996 279.635 39.178 279.215 40.174C278.807 41.17 278.225 41.938 277.469 42.478C276.713 43.018 275.813 43.288 274.769 43.288ZM274.769 41.776C275.873 41.776 276.725 41.332 277.325 40.444C277.925 39.544 278.225 38.272 278.225 36.628C278.225 35.524 278.087 34.588 277.811 33.82C277.547 33.04 277.157 32.452 276.641 32.056C276.137 31.648 275.513 31.444 274.769 31.444C274.037 31.444 273.413 31.648 272.897 32.056C272.393 32.452 272.003 33.04 271.727 33.82C271.463 34.588 271.331 35.524 271.331 36.628C271.331 38.272 271.631 39.544 272.231 40.444C272.831 41.332 273.677 41.776 274.769 41.776ZM284.31 36.412C283.506 36.412 282.84 36.142 282.312 35.602C281.796 35.05 281.538 34.264 281.538 33.244C281.538 32.212 281.796 31.426 282.312 30.886C282.84 30.346 283.506 30.076 284.31 30.076C285.126 30.076 285.792 30.346 286.308 30.886C286.824 31.426 287.082 32.212 287.082 33.244C287.082 34.264 286.824 35.05 286.308 35.602C285.792 36.142 285.126 36.412 284.31 36.412ZM284.31 35.296C284.802 35.296 285.168 35.116 285.408 34.756C285.66 34.396 285.786 33.892 285.786 33.244C285.786 32.596 285.66 32.092 285.408 31.732C285.168 31.372 284.802 31.192 284.31 31.192C283.83 31.192 283.464 31.372 283.212 31.732C282.96 32.092 282.834 32.596 282.834 33.244C282.834 33.892 282.96 34.396 283.212 34.756C283.464 35.116 283.83 35.296 284.31 35.296ZM291.618 43.144C290.814 43.144 290.148 42.874 289.62 42.334C289.104 41.782 288.846 40.996 288.846 39.976C288.846 38.944 289.104 38.158 289.62 37.618C290.148 37.078 290.814 36.808 291.618 36.808C292.434 36.808 293.1 37.078 293.616 37.618C294.132 38.158 294.39 38.944 294.39 39.976C294.39 40.996 294.132 41.782 293.616 42.334C293.1 42.874 292.434 43.144 291.618 43.144ZM291.618 42.028C292.11 42.028 292.476 41.848 292.716 41.488C292.968 41.128 293.094 40.624 293.094 39.976C293.094 39.328 292.968 38.824 292.716 38.464C292.476 38.104 292.11 37.924 291.618 37.924C291.138 37.924 290.772 38.104 290.52 38.464C290.268 38.824 290.142 39.328 290.142 39.976C290.142 40.624 290.268 41.128 290.52 41.488C290.772 41.848 291.138 42.028 291.618 42.028ZM282.834 43L291.654 30.22H293.094L284.274 43H282.834ZM300.038 43L304.646 30.22H306.734L311.342 43H309.65L308.372 39.364H303.008L301.73 43H300.038ZM303.53 37.852H307.85L305.69 31.57L303.53 37.852ZM316.209 43.216C315.381 43.216 314.661 43.012 314.049 42.604C313.449 42.196 312.987 41.62 312.663 40.876C312.339 40.132 312.177 39.25 312.177 38.23C312.177 37.21 312.339 36.328 312.663 35.584C312.987 34.84 313.449 34.264 314.049 33.856C314.661 33.448 315.381 33.244 316.209 33.244C316.845 33.244 317.427 33.382 317.955 33.658C318.483 33.922 318.879 34.3 319.143 34.792V30.22H320.655V43H319.287L319.233 41.56C318.969 42.076 318.567 42.484 318.027 42.784C317.487 43.072 316.881 43.216 316.209 43.216ZM316.515 41.776C317.079 41.776 317.553 41.632 317.937 41.344C318.333 41.056 318.633 40.648 318.837 40.12C319.041 39.58 319.143 38.95 319.143 38.23C319.143 37.486 319.041 36.85 318.837 36.322C318.633 35.794 318.333 35.392 317.937 35.116C317.553 34.828 317.079 34.684 316.515 34.684C315.675 34.684 315.003 35.002 314.499 35.638C314.007 36.262 313.761 37.126 313.761 38.23C313.761 39.322 314.007 40.186 314.499 40.822C315.003 41.458 315.675 41.776 316.515 41.776ZM326.738 43.216C325.91 43.216 325.19 43.012 324.578 42.604C323.978 42.196 323.516 41.62 323.192 40.876C322.868 40.132 322.706 39.25 322.706 38.23C322.706 37.21 322.868 36.328 323.192 35.584C323.516 34.84 323.978 34.264 324.578 33.856C325.19 33.448 325.91 33.244 326.738 33.244C327.374 33.244 327.956 33.382 328.484 33.658C329.012 33.922 329.408 34.3 329.672 34.792V30.22H331.184V43H329.816L329.762 41.56C329.498 42.076 329.096 42.484 328.556 42.784C328.016 43.072 327.41 43.216 326.738 43.216ZM327.044 41.776C327.608 41.776 328.082 41.632 328.466 41.344C328.862 41.056 329.162 40.648 329.366 40.12C329.57 39.58 329.672 38.95 329.672 38.23C329.672 37.486 329.57 36.85 329.366 36.322C329.162 35.794 328.862 35.392 328.466 35.116C328.082 34.828 327.608 34.684 327.044 34.684C326.204 34.684 325.532 35.002 325.028 35.638C324.536 36.262 324.29 37.126 324.29 38.23C324.29 39.322 324.536 40.186 325.028 40.822C325.532 41.458 326.204 41.776 327.044 41.776ZM333.708 43V33.46H335.22V43H333.708ZM333.672 31.966V30.202H335.256V31.966H333.672ZM340.873 43C340.009 43 339.367 42.802 338.947 42.406C338.539 42.01 338.335 41.392 338.335 40.552V31.228H339.847V40.516C339.847 40.948 339.943 41.248 340.135 41.416C340.327 41.584 340.621 41.668 341.017 41.668H342.385V43H340.873ZM336.931 34.792V33.46H342.385V34.792H336.931ZM344.325 43V33.46H345.837V43H344.325ZM344.289 31.966V30.202H345.873V31.966H344.289ZM352.27 43.216C351.394 43.216 350.626 43.012 349.966 42.604C349.306 42.196 348.796 41.62 348.436 40.876C348.076 40.12 347.896 39.238 347.896 38.23C347.896 37.21 348.076 36.328 348.436 35.584C348.796 34.84 349.306 34.264 349.966 33.856C350.626 33.448 351.394 33.244 352.27 33.244C353.146 33.244 353.908 33.448 354.556 33.856C355.216 34.264 355.726 34.84 356.086 35.584C356.446 36.328 356.626 37.21 356.626 38.23C356.626 39.238 356.446 40.12 356.086 40.876C355.726 41.62 355.216 42.196 354.556 42.604C353.908 43.012 353.146 43.216 352.27 43.216ZM352.27 41.776C353.146 41.776 353.824 41.464 354.304 40.84C354.796 40.204 355.042 39.334 355.042 38.23C355.042 37.126 354.796 36.262 354.304 35.638C353.824 35.002 353.146 34.684 352.27 34.684C351.394 34.684 350.71 35.002 350.218 35.638C349.726 36.262 349.48 37.126 349.48 38.23C349.48 39.334 349.726 40.204 350.218 40.84C350.71 41.464 351.394 41.776 352.27 41.776ZM358.686 43V33.46H360.072L360.126 35.89L359.946 35.728C360.066 35.164 360.276 34.702 360.576 34.342C360.876 33.97 361.236 33.694 361.656 33.514C362.088 33.334 362.55 33.244 363.042 33.244C363.774 33.244 364.374 33.406 364.842 33.73C365.322 34.054 365.676 34.492 365.904 35.044C366.144 35.584 366.264 36.19 366.264 36.862V43H364.752V37.294C364.752 36.706 364.68 36.214 364.536 35.818C364.404 35.41 364.188 35.104 363.888 34.9C363.588 34.684 363.198 34.576 362.718 34.576C361.986 34.576 361.38 34.81 360.9 35.278C360.432 35.734 360.198 36.406 360.198 37.294V43H358.686ZM371.543 43.216C370.559 43.216 369.773 42.988 369.185 42.532C368.609 42.076 368.321 41.44 368.321 40.624C368.321 39.808 368.561 39.166 369.041 38.698C369.521 38.23 370.283 37.9 371.327 37.708L374.711 37.078C374.711 36.274 374.519 35.674 374.135 35.278C373.763 34.882 373.199 34.684 372.443 34.684C371.783 34.684 371.261 34.834 370.877 35.134C370.493 35.422 370.229 35.842 370.085 36.394L368.483 36.268C368.663 35.368 369.095 34.642 369.779 34.09C370.475 33.526 371.363 33.244 372.443 33.244C373.667 33.244 374.603 33.592 375.251 34.288C375.899 34.972 376.223 35.92 376.223 37.132V41.074C376.223 41.29 376.259 41.446 376.331 41.542C376.415 41.626 376.547 41.668 376.727 41.668H377.105V43C377.057 43.012 376.979 43.018 376.871 43.018C376.763 43.03 376.649 43.036 376.529 43.036C376.097 43.036 375.743 42.97 375.467 42.838C375.203 42.694 375.011 42.478 374.891 42.19C374.771 41.89 374.711 41.5 374.711 41.02L374.891 41.056C374.807 41.464 374.603 41.836 374.279 42.172C373.955 42.496 373.553 42.754 373.073 42.946C372.593 43.126 372.083 43.216 371.543 43.216ZM371.687 41.884C372.323 41.884 372.863 41.764 373.307 41.524C373.763 41.272 374.111 40.936 374.351 40.516C374.591 40.084 374.711 39.604 374.711 39.076V38.392L371.615 38.968C370.967 39.088 370.517 39.274 370.265 39.526C370.025 39.766 369.905 40.084 369.905 40.48C369.905 40.924 370.061 41.272 370.373 41.524C370.697 41.764 371.135 41.884 371.687 41.884ZM380.58 43C380.028 43 379.578 42.856 379.23 42.568C378.882 42.28 378.708 41.824 378.708 41.2V30.22H380.22V41.074C380.22 41.266 380.268 41.416 380.364 41.524C380.472 41.62 380.622 41.668 380.814 41.668H381.642V43H380.58ZM388.222 43V30.22H392.614C394.126 30.22 395.26 30.496 396.016 31.048C396.772 31.6 397.15 32.47 397.15 33.658C397.15 34.21 397.03 34.696 396.79 35.116C396.55 35.536 396.208 35.866 395.764 36.106C395.32 36.334 394.792 36.448 394.18 36.448L394.162 36.34C395.254 36.34 396.112 36.634 396.736 37.222C397.372 37.798 397.69 38.554 397.69 39.49C397.69 40.654 397.312 41.53 396.556 42.118C395.8 42.706 394.726 43 393.334 43H388.222ZM389.77 41.488H393.334C394.21 41.488 394.882 41.308 395.35 40.948C395.83 40.588 396.07 40.072 396.07 39.4C396.07 38.728 395.83 38.206 395.35 37.834C394.882 37.45 394.21 37.258 393.334 37.258H389.77V41.488ZM389.77 35.746H392.614C393.55 35.746 394.27 35.572 394.774 35.224C395.278 34.864 395.53 34.366 395.53 33.73C395.53 33.058 395.284 32.56 394.792 32.236C394.312 31.9 393.586 31.732 392.614 31.732H389.77V35.746ZM403.932 43.216C403.056 43.216 402.288 43.012 401.628 42.604C400.968 42.196 400.458 41.62 400.098 40.876C399.738 40.12 399.558 39.238 399.558 38.23C399.558 37.21 399.738 36.328 400.098 35.584C400.458 34.84 400.968 34.264 401.628 33.856C402.288 33.448 403.056 33.244 403.932 33.244C404.808 33.244 405.57 33.448 406.218 33.856C406.878 34.264 407.388 34.84 407.748 35.584C408.108 36.328 408.288 37.21 408.288 38.23C408.288 39.238 408.108 40.12 407.748 40.876C407.388 41.62 406.878 42.196 406.218 42.604C405.57 43.012 404.808 43.216 403.932 43.216ZM403.932 41.776C404.808 41.776 405.486 41.464 405.966 40.84C406.458 40.204 406.704 39.334 406.704 38.23C406.704 37.126 406.458 36.262 405.966 35.638C405.486 35.002 404.808 34.684 403.932 34.684C403.056 34.684 402.372 35.002 401.88 35.638C401.388 36.262 401.142 37.126 401.142 38.23C401.142 39.334 401.388 40.204 401.88 40.84C402.372 41.464 403.056 41.776 403.932 41.776ZM410.348 43V33.46H411.734L411.788 35.89L411.608 35.728C411.728 35.164 411.938 34.702 412.238 34.342C412.538 33.97 412.898 33.694 413.318 33.514C413.75 33.334 414.212 33.244 414.704 33.244C415.436 33.244 416.036 33.406 416.504 33.73C416.984 34.054 417.338 34.492 417.566 35.044C417.806 35.584 417.926 36.19 417.926 36.862V43H416.414V37.294C416.414 36.706 416.342 36.214 416.198 35.818C416.066 35.41 415.85 35.104 415.55 34.9C415.25 34.684 414.86 34.576 414.38 34.576C413.648 34.576 413.042 34.81 412.562 35.278C412.094 35.734 411.86 36.406 411.86 37.294V43H410.348ZM423.98 43.216C423.152 43.216 422.432 43.012 421.82 42.604C421.22 42.196 420.758 41.62 420.434 40.876C420.11 40.132 419.948 39.25 419.948 38.23C419.948 37.21 420.11 36.328 420.434 35.584C420.758 34.84 421.22 34.264 421.82 33.856C422.432 33.448 423.152 33.244 423.98 33.244C424.616 33.244 425.198 33.382 425.726 33.658C426.254 33.922 426.65 34.3 426.914 34.792V30.22H428.426V43H427.058L427.004 41.56C426.74 42.076 426.338 42.484 425.798 42.784C425.258 43.072 424.652 43.216 423.98 43.216ZM424.286 41.776C424.85 41.776 425.324 41.632 425.708 41.344C426.104 41.056 426.404 40.648 426.608 40.12C426.812 39.58 426.914 38.95 426.914 38.23C426.914 37.486 426.812 36.85 426.608 36.322C426.404 35.794 426.104 35.392 425.708 35.116C425.324 34.828 424.85 34.684 424.286 34.684C423.446 34.684 422.774 35.002 422.27 35.638C421.778 36.262 421.532 37.126 421.532 38.23C421.532 39.322 421.778 40.186 422.27 40.822C422.774 41.458 423.446 41.776 424.286 41.776ZM434.6 43.216C433.748 43.216 433.022 43.078 432.422 42.802C431.834 42.526 431.372 42.148 431.036 41.668C430.712 41.176 430.526 40.618 430.478 39.994L432.062 39.886C432.158 40.462 432.404 40.924 432.8 41.272C433.196 41.608 433.796 41.776 434.6 41.776C435.248 41.776 435.764 41.674 436.148 41.47C436.544 41.254 436.742 40.912 436.742 40.444C436.742 40.192 436.682 39.982 436.562 39.814C436.442 39.646 436.208 39.502 435.86 39.382C435.512 39.25 434.996 39.124 434.312 39.004C433.4 38.836 432.68 38.632 432.152 38.392C431.636 38.14 431.264 37.834 431.036 37.474C430.82 37.102 430.712 36.664 430.712 36.16C430.712 35.308 431.024 34.612 431.648 34.072C432.272 33.52 433.16 33.244 434.312 33.244C435.092 33.244 435.746 33.388 436.274 33.676C436.814 33.952 437.234 34.324 437.534 34.792C437.846 35.248 438.05 35.752 438.146 36.304L436.562 36.412C436.49 36.076 436.358 35.782 436.166 35.53C435.974 35.266 435.722 35.062 435.41 34.918C435.098 34.762 434.726 34.684 434.294 34.684C433.61 34.684 433.106 34.816 432.782 35.08C432.458 35.344 432.296 35.68 432.296 36.088C432.296 36.4 432.368 36.658 432.512 36.862C432.668 37.054 432.914 37.216 433.25 37.348C433.586 37.468 434.036 37.576 434.6 37.672C435.572 37.84 436.328 38.044 436.868 38.284C437.408 38.524 437.786 38.818 438.002 39.166C438.218 39.514 438.326 39.94 438.326 40.444C438.326 41.032 438.158 41.536 437.822 41.956C437.498 42.364 437.054 42.676 436.49 42.892C435.938 43.108 435.308 43.216 434.6 43.216ZM445.281 43V30.22H449.241C451.209 30.22 452.721 30.778 453.777 31.894C454.845 32.998 455.379 34.576 455.379 36.628C455.379 38.668 454.857 40.24 453.813 41.344C452.769 42.448 451.281 43 449.349 43H445.281ZM446.829 41.488H449.241C450.741 41.488 451.869 41.086 452.625 40.282C453.381 39.466 453.759 38.248 453.759 36.628C453.759 34.984 453.381 33.76 452.625 32.956C451.869 32.14 450.741 31.732 449.241 31.732H446.829V41.488ZM457.387 43V33.46H458.899V43H457.387ZM457.351 31.966V30.202H458.935V31.966H457.351ZM465.08 43.216C464.228 43.216 463.502 43.078 462.902 42.802C462.314 42.526 461.852 42.148 461.516 41.668C461.192 41.176 461.006 40.618 460.958 39.994L462.542 39.886C462.638 40.462 462.884 40.924 463.28 41.272C463.676 41.608 464.276 41.776 465.08 41.776C465.728 41.776 466.244 41.674 466.628 41.47C467.024 41.254 467.222 40.912 467.222 40.444C467.222 40.192 467.162 39.982 467.042 39.814C466.922 39.646 466.688 39.502 466.34 39.382C465.992 39.25 465.476 39.124 464.792 39.004C463.88 38.836 463.16 38.632 462.632 38.392C462.116 38.14 461.744 37.834 461.516 37.474C461.3 37.102 461.192 36.664 461.192 36.16C461.192 35.308 461.504 34.612 462.128 34.072C462.752 33.52 463.64 33.244 464.792 33.244C465.572 33.244 466.226 33.388 466.754 33.676C467.294 33.952 467.714 34.324 468.014 34.792C468.326 35.248 468.53 35.752 468.626 36.304L467.042 36.412C466.97 36.076 466.838 35.782 466.646 35.53C466.454 35.266 466.202 35.062 465.89 34.918C465.578 34.762 465.206 34.684 464.774 34.684C464.09 34.684 463.586 34.816 463.262 35.08C462.938 35.344 462.776 35.68 462.776 36.088C462.776 36.4 462.848 36.658 462.992 36.862C463.148 37.054 463.394 37.216 463.73 37.348C464.066 37.468 464.516 37.576 465.08 37.672C466.052 37.84 466.808 38.044 467.348 38.284C467.888 38.524 468.266 38.818 468.482 39.166C468.698 39.514 468.806 39.94 468.806 40.444C468.806 41.032 468.638 41.536 468.302 41.956C467.978 42.364 467.534 42.676 466.97 42.892C466.418 43.108 465.788 43.216 465.08 43.216ZM474.596 43.216C473.708 43.216 472.934 43.012 472.274 42.604C471.626 42.196 471.122 41.62 470.762 40.876C470.402 40.12 470.222 39.238 470.222 38.23C470.222 37.222 470.402 36.346 470.762 35.602C471.122 34.858 471.626 34.282 472.274 33.874C472.934 33.454 473.708 33.244 474.596 33.244C475.328 33.244 475.976 33.376 476.54 33.64C477.116 33.892 477.584 34.264 477.944 34.756C478.304 35.248 478.538 35.848 478.646 36.556L477.062 36.664C476.954 36.028 476.678 35.542 476.234 35.206C475.79 34.858 475.244 34.684 474.596 34.684C473.72 34.684 473.036 35.002 472.544 35.638C472.052 36.262 471.806 37.126 471.806 38.23C471.806 39.334 472.052 40.204 472.544 40.84C473.036 41.464 473.72 41.776 474.596 41.776C475.244 41.776 475.79 41.596 476.234 41.236C476.678 40.876 476.954 40.336 477.062 39.616L478.646 39.724C478.538 40.432 478.304 41.05 477.944 41.578C477.584 42.094 477.116 42.496 476.54 42.784C475.976 43.072 475.328 43.216 474.596 43.216ZM484.246 43.216C483.37 43.216 482.602 43.012 481.942 42.604C481.282 42.196 480.772 41.62 480.412 40.876C480.052 40.12 479.872 39.238 479.872 38.23C479.872 37.21 480.052 36.328 480.412 35.584C480.772 34.84 481.282 34.264 481.942 33.856C482.602 33.448 483.37 33.244 484.246 33.244C485.122 33.244 485.884 33.448 486.532 33.856C487.192 34.264 487.702 34.84 488.062 35.584C488.422 36.328 488.602 37.21 488.602 38.23C488.602 39.238 488.422 40.12 488.062 40.876C487.702 41.62 487.192 42.196 486.532 42.604C485.884 43.012 485.122 43.216 484.246 43.216ZM484.246 41.776C485.122 41.776 485.8 41.464 486.28 40.84C486.772 40.204 487.018 39.334 487.018 38.23C487.018 37.126 486.772 36.262 486.28 35.638C485.8 35.002 485.122 34.684 484.246 34.684C483.37 34.684 482.686 35.002 482.194 35.638C481.702 36.262 481.456 37.126 481.456 38.23C481.456 39.334 481.702 40.204 482.194 40.84C482.686 41.464 483.37 41.776 484.246 41.776ZM493.795 43.216C492.847 43.216 492.085 42.898 491.509 42.262C490.945 41.614 490.663 40.726 490.663 39.598V33.46H492.175V39.184C492.175 40.108 492.337 40.792 492.661 41.236C492.997 41.668 493.507 41.884 494.191 41.884C494.947 41.884 495.541 41.644 495.973 41.164C496.405 40.672 496.621 40 496.621 39.148V33.46H498.133V43H496.693V40.642L496.927 40.768C496.735 41.548 496.369 42.154 495.829 42.586C495.289 43.006 494.611 43.216 493.795 43.216ZM501.016 43V33.46H502.402L502.456 35.89L502.276 35.728C502.396 35.164 502.606 34.702 502.906 34.342C503.206 33.97 503.566 33.694 503.986 33.514C504.418 33.334 504.88 33.244 505.372 33.244C506.104 33.244 506.704 33.406 507.172 33.73C507.652 34.054 508.006 34.492 508.234 35.044C508.474 35.584 508.594 36.19 508.594 36.862V43H507.082V37.294C507.082 36.706 507.01 36.214 506.866 35.818C506.734 35.41 506.518 35.104 506.218 34.9C505.918 34.684 505.528 34.576 505.048 34.576C504.316 34.576 503.71 34.81 503.23 35.278C502.762 35.734 502.528 36.406 502.528 37.294V43H501.016ZM514.246 43C513.382 43 512.74 42.802 512.32 42.406C511.912 42.01 511.708 41.392 511.708 40.552V31.228H513.22V40.516C513.22 40.948 513.316 41.248 513.508 41.416C513.7 41.584 513.994 41.668 514.39 41.668H515.758V43H514.246ZM510.304 34.792V33.46H515.758V34.792H510.304Z" fill="#171717"/>
<path d="M91.6568 43V30.22H93.9968V42.28L92.7188 40.966H100.063V43H91.6568ZM101.338 43V33.388H103.642V43H101.338ZM101.302 32.11V30.058H103.696V32.11H101.302ZM114.654 45.7H112.35V40.966L112.566 41.146C112.446 41.566 112.236 41.932 111.936 42.244C111.648 42.556 111.294 42.796 110.874 42.964C110.466 43.132 110.022 43.216 109.542 43.216C108.63 43.216 107.868 42.988 107.256 42.532C106.656 42.076 106.2 41.47 105.888 40.714C105.588 39.958 105.438 39.118 105.438 38.194C105.438 37.27 105.588 36.43 105.888 35.674C106.188 34.918 106.638 34.312 107.238 33.856C107.85 33.4 108.612 33.172 109.524 33.172C110.256 33.172 110.898 33.358 111.45 33.73C112.002 34.09 112.392 34.624 112.62 35.332L112.386 35.44L112.44 33.388H114.654V45.7ZM110.082 41.344C110.562 41.344 110.97 41.23 111.306 41.002C111.642 40.762 111.9 40.408 112.08 39.94C112.26 39.472 112.35 38.89 112.35 38.194C112.35 37.498 112.254 36.916 112.062 36.448C111.882 35.98 111.624 35.632 111.288 35.404C110.952 35.164 110.55 35.044 110.082 35.044C109.386 35.044 108.834 35.326 108.426 35.89C108.03 36.442 107.832 37.21 107.832 38.194C107.832 39.178 108.03 39.952 108.426 40.516C108.834 41.068 109.386 41.344 110.082 41.344ZM120.344 43.216C119.372 43.216 118.598 42.898 118.022 42.262C117.458 41.614 117.176 40.72 117.176 39.58V33.388H119.48V39.004C119.48 39.808 119.612 40.402 119.876 40.786C120.152 41.158 120.566 41.344 121.118 41.344C121.742 41.344 122.222 41.14 122.558 40.732C122.906 40.312 123.08 39.706 123.08 38.914V33.388H125.384V43H123.278L123.224 40.354L123.512 40.444C123.368 41.356 123.026 42.046 122.486 42.514C121.946 42.982 121.232 43.216 120.344 43.216ZM127.74 43V33.388H130.044V43H127.74ZM127.704 32.11V30.058H130.098V32.11H127.704ZM135.819 43.216C135.003 43.216 134.295 43.012 133.695 42.604C133.107 42.196 132.651 41.614 132.327 40.858C132.003 40.102 131.841 39.214 131.841 38.194C131.841 37.174 132.003 36.286 132.327 35.53C132.651 34.774 133.113 34.192 133.713 33.784C134.313 33.376 135.015 33.172 135.819 33.172C136.491 33.172 137.079 33.31 137.583 33.586C138.099 33.862 138.489 34.252 138.753 34.756V30.22H141.057V43H138.861L138.807 41.578C138.543 42.094 138.147 42.496 137.619 42.784C137.091 43.072 136.491 43.216 135.819 43.216ZM136.521 41.344C137.001 41.344 137.403 41.224 137.727 40.984C138.063 40.744 138.315 40.39 138.483 39.922C138.663 39.442 138.753 38.866 138.753 38.194C138.753 37.51 138.663 36.934 138.483 36.466C138.315 35.998 138.063 35.644 137.727 35.404C137.403 35.164 137.001 35.044 136.521 35.044C135.825 35.044 135.267 35.326 134.847 35.89C134.439 36.442 134.235 37.21 134.235 38.194C134.235 39.154 134.439 39.922 134.847 40.498C135.267 41.062 135.825 41.344 136.521 41.344ZM143.297 43V33.388H145.601V43H143.297ZM143.261 32.11V30.058H145.655V32.11H143.261ZM151.385 43C150.425 43 149.717 42.778 149.261 42.334C148.817 41.89 148.595 41.194 148.595 40.246V31.138H150.899V40.03C150.899 40.474 150.995 40.786 151.187 40.966C151.379 41.134 151.679 41.218 152.087 41.218H153.437V43H151.385ZM147.083 35.17V33.388H153.437V35.17H147.083ZM155.688 45.7V43.918H156.912C157.224 43.918 157.452 43.87 157.596 43.774C157.752 43.678 157.872 43.516 157.956 43.288L158.226 42.622H157.56L154.122 33.388H156.516L158.928 40.462L161.232 33.388H163.626L159.864 44.008C159.648 44.608 159.342 45.04 158.946 45.304C158.562 45.568 158.022 45.7 157.326 45.7H155.688ZM163.745 43V40.48H166.373V43H163.745ZM170.474 43C169.778 43 169.22 42.82 168.8 42.46C168.38 42.1 168.17 41.524 168.17 40.732V30.22H170.474V40.498C170.474 40.738 170.534 40.918 170.654 41.038C170.786 41.158 170.966 41.218 171.194 41.218H171.896V43H170.474ZM176.269 43.216C175.261 43.216 174.451 42.988 173.839 42.532C173.227 42.064 172.921 41.416 172.921 40.588C172.921 39.76 173.179 39.112 173.695 38.644C174.211 38.176 174.997 37.84 176.053 37.636L179.239 37.006C179.239 36.322 179.083 35.812 178.771 35.476C178.459 35.128 177.997 34.954 177.385 34.954C176.833 34.954 176.395 35.086 176.071 35.35C175.759 35.602 175.543 35.968 175.423 36.448L173.083 36.34C173.275 35.32 173.743 34.54 174.487 34C175.231 33.448 176.197 33.172 177.385 33.172C178.753 33.172 179.785 33.52 180.481 34.216C181.189 34.9 181.543 35.884 181.543 37.168V40.66C181.543 40.912 181.585 41.086 181.669 41.182C181.765 41.278 181.903 41.326 182.083 41.326H182.389V43C182.317 43.024 182.197 43.042 182.029 43.054C181.873 43.066 181.711 43.072 181.543 43.072C181.147 43.072 180.793 43.012 180.481 42.892C180.169 42.76 179.929 42.538 179.761 42.226C179.593 41.902 179.509 41.464 179.509 40.912L179.707 41.056C179.611 41.476 179.401 41.854 179.077 42.19C178.765 42.514 178.369 42.766 177.889 42.946C177.409 43.126 176.869 43.216 176.269 43.216ZM176.737 41.542C177.253 41.542 177.697 41.44 178.069 41.236C178.441 41.032 178.729 40.75 178.933 40.39C179.137 40.03 179.239 39.604 179.239 39.112V38.572L176.755 39.076C176.239 39.184 175.867 39.346 175.639 39.562C175.423 39.766 175.315 40.036 175.315 40.372C175.315 40.744 175.435 41.032 175.675 41.236C175.927 41.44 176.281 41.542 176.737 41.542ZM183.885 43V33.388H185.973L186.063 36.088L185.793 35.98C185.889 35.308 186.087 34.768 186.387 34.36C186.687 33.952 187.053 33.652 187.485 33.46C187.917 33.268 188.391 33.172 188.907 33.172C189.615 33.172 190.209 33.328 190.689 33.64C191.181 33.952 191.553 34.384 191.805 34.936C192.057 35.476 192.183 36.106 192.183 36.826V43H189.879V37.564C189.879 37.024 189.825 36.568 189.717 36.196C189.609 35.824 189.429 35.542 189.177 35.35C188.937 35.146 188.613 35.044 188.205 35.044C187.593 35.044 187.101 35.26 186.729 35.692C186.369 36.124 186.189 36.748 186.189 37.564V43H183.885ZM197.887 43.216C197.071 43.216 196.363 43.012 195.763 42.604C195.175 42.196 194.719 41.614 194.395 40.858C194.071 40.102 193.909 39.214 193.909 38.194C193.909 37.174 194.071 36.286 194.395 35.53C194.719 34.774 195.181 34.192 195.781 33.784C196.381 33.376 197.083 33.172 197.887 33.172C198.559 33.172 199.147 33.31 199.651 33.586C200.167 33.862 200.557 34.252 200.821 34.756V30.22H203.125V43H200.929L200.875 41.578C200.611 42.094 200.215 42.496 199.687 42.784C199.159 43.072 198.559 43.216 197.887 43.216ZM198.589 41.344C199.069 41.344 199.471 41.224 199.795 40.984C200.131 40.744 200.383 40.39 200.551 39.922C200.731 39.442 200.821 38.866 200.821 38.194C200.821 37.51 200.731 36.934 200.551 36.466C200.383 35.998 200.131 35.644 199.795 35.404C199.471 35.164 199.069 35.044 198.589 35.044C197.893 35.044 197.335 35.326 196.915 35.89C196.507 36.442 196.303 37.21 196.303 38.194C196.303 39.154 196.507 39.922 196.915 40.498C197.335 41.062 197.893 41.344 198.589 41.344Z" fill="#6C4FCD"/>
<path d="M90.2168 45.25H111.452V46.15H90.2168V45.25ZM115.556 45.25H154.788V46.15H115.556V45.25ZM159.923 45.25H204.387V46.15H159.923V45.25Z" fill="#6C4FCD"/>
<g opacity="0.82">
<path fill-rule="evenodd" clip-rule="evenodd" d="M1107.3 36.3153C1107.3 75.7385 1087.4 107.697 1062.86 107.697C1051.31 107.697 1040.8 100.625 1032.9 89.0308C1022.05 73.1131 1016.73 48.5203 997.464 48.5203C978.487 48.5203 973.765 72.9533 963.177 88.702C955.252 100.492 944.644 107.698 932.99 107.698C908.446 107.698 888.549 75.7398 888.549 36.3166C888.549 -3.10616 908.446 -35.0647 932.99 -35.0647C944.544 -35.0647 955.068 -27.9823 962.972 -16.3729C973.269 -1.24799 979.167 20.8891 997.464 20.8891C1015.64 20.8891 1022.22 -0.0129509 1032.13 -15.2498C1040.11 -27.5249 1050.94 -35.0663 1062.86 -35.0663C1087.4 -35.0663 1107.3 -3.10767 1107.3 36.3153Z" fill="url(#paint1_linear_2088_5362)"/>
<path d="M1062.86 107.956C1075.25 107.956 1086.43 99.8911 1094.5 86.9321C1102.57 73.9692 1107.55 56.0766 1107.55 36.3264H1107.05C1107.05 55.9987 1102.09 73.7969 1094.07 86.6694C1086.06 99.5452 1075.02 107.459 1062.86 107.459V107.956ZM1032.69 89.1821C1040.62 100.817 1051.21 107.956 1062.86 107.956V107.459C1051.43 107.459 1040.98 100.455 1033.1 88.9024L1032.69 89.1821ZM932.99 107.958C944.756 107.958 955.43 100.683 963.384 88.852L962.972 88.5742C955.073 100.323 944.534 107.461 932.99 107.461V107.958ZM888.301 36.3277C888.301 56.0786 893.284 73.9705 901.355 86.9334C909.423 99.893 920.601 107.958 932.99 107.958V107.461C920.835 107.461 909.793 99.5465 901.777 86.6707C893.763 73.7989 888.798 56.0006 888.798 36.3277H888.301ZM932.99 -35.3022C920.601 -35.3022 909.423 -27.2371 901.355 -14.2779C893.284 -1.31498 888.301 16.5775 888.301 36.3277H888.798C888.798 16.6554 893.763 -1.14291 901.777 -14.0151C909.793 -26.8909 920.835 -34.8051 932.99 -34.8051V-35.3022ZM963.178 -16.5017C955.246 -28.1524 944.654 -35.3022 932.99 -35.3022V-34.8051C944.434 -34.8051 954.891 -27.7901 962.767 -16.2219L963.178 -16.5017ZM1062.86 -35.3038C1050.82 -35.3038 1039.93 -27.6908 1031.92 -15.3742L1032.34 -15.1032C1040.29 -27.3367 1051.05 -34.8066 1062.86 -34.8066V-35.3038ZM1107.55 36.3264C1107.55 16.5759 1102.57 -1.31655 1094.5 -14.2794C1086.43 -27.2386 1075.25 -35.3038 1062.86 -35.3038V-34.8066C1075.02 -34.8066 1086.06 -26.8925 1094.07 -14.0166C1102.09 -1.14448 1107.05 16.6538 1107.05 36.3264H1107.55ZM997.464 21.1488C1006.67 21.1488 1012.92 15.8478 1018.1 8.69022C1020.69 5.11216 1023.01 1.05934 1025.31 -3.0426C1027.6 -7.14887 1029.87 -11.3028 1032.34 -15.1032L1031.92 -15.3742C1029.44 -11.5562 1027.17 -7.38356 1024.87 -3.28529C1022.58 0.817249 1020.27 4.84688 1017.7 8.39887C1012.56 15.5015 1006.44 20.6516 997.464 20.6516V21.1488ZM962.767 -16.2219C965.333 -12.4527 967.626 -8.24433 969.914 -4.04C972.2 0.159866 974.48 4.35633 977.013 8.08079C982.078 15.5301 988.192 21.1488 997.464 21.1488V20.6516C988.44 20.6516 982.456 15.2017 977.423 7.80123C974.907 4.10088 972.639 -0.0729294 970.351 -4.27765C968.065 -8.47785 965.76 -12.7084 963.178 -16.5017L962.767 -16.2219ZM997.464 48.2832C987.841 48.2832 981.851 54.4902 976.962 62.5882C974.518 66.6375 972.337 71.1801 970.111 75.6808C967.882 80.1867 965.609 84.6526 962.972 88.5742L963.384 88.852C966.042 84.8996 968.328 80.4055 970.556 75.9009C972.787 71.391 974.957 66.872 977.388 62.845C982.251 54.7895 988.111 48.7803 997.464 48.7803V48.2832ZM1033.1 88.9024C1030.4 84.9369 1028.04 80.4284 1025.71 75.8838C1023.39 71.3439 1021.1 66.7659 1018.55 62.6858C1013.44 54.5262 1007.23 48.2832 997.464 48.2832V48.7803C1006.96 48.7803 1013.04 54.8334 1018.13 62.9498C1020.67 67.007 1022.94 71.562 1025.27 76.1098C1027.6 80.6531 1029.97 85.1878 1032.69 89.1821L1033.1 88.9024Z" fill="white"/>
<path d="M1095.08 36.7821C1095.08 52.0029 1091.19 65.7714 1084.93 75.7265C1078.67 85.6848 1070.04 91.7961 1060.56 91.7961C1051.07 91.7961 1042.45 85.6848 1036.18 75.7265C1029.92 65.7714 1026.04 52.0029 1026.04 36.7821C1026.04 21.5608 1029.92 7.79249 1036.18 -2.16274C1042.45 -12.1212 1051.07 -18.2327 1060.56 -18.2327C1070.04 -18.2327 1078.67 -12.1212 1084.93 -2.16274C1091.19 7.79249 1095.08 21.5608 1095.08 36.7821Z" fill="url(#paint2_linear_2088_5362)" stroke="white" stroke-width="0.497164"/>
<path d="M900.775 35.8722C900.775 20.6512 904.658 6.88281 910.921 -3.07235C917.187 -13.0308 925.811 -19.1423 935.297 -19.1423C944.782 -19.1423 953.407 -13.0308 959.672 -3.07235C965.935 6.88281 969.818 20.6512 969.818 35.8722C969.818 51.0929 965.935 64.8615 959.672 74.8165C953.407 84.7755 944.782 90.8869 935.297 90.8869C925.811 90.8869 917.187 84.7755 910.921 74.8165C904.658 64.8615 900.775 51.0929 900.775 35.8722Z" fill="url(#paint3_linear_2088_5362)" stroke="white" stroke-width="0.497164"/>
<path d="M1078.96 37.0146C1078.96 47.7216 1076.26 57.4035 1071.91 64.4005C1067.56 71.4007 1061.59 75.6806 1055.03 75.6806C1048.47 75.6806 1042.49 71.4007 1038.14 64.4005C1033.8 57.4035 1031.1 47.7216 1031.1 37.0146C1031.1 26.3076 1033.8 16.626 1038.14 9.62921C1042.49 2.62866 1048.47 -1.65118 1055.03 -1.65118C1061.59 -1.65118 1067.56 2.62866 1071.91 9.62921C1076.26 16.626 1078.96 26.3076 1078.96 37.0146Z" fill="url(#paint4_linear_2088_5362)" stroke="white" stroke-width="0.497164"/>
<path d="M916.895 35.6431C916.895 24.9359 919.591 15.2543 923.939 8.25751C928.288 1.25703 934.264 -3.02289 940.824 -3.02289C947.383 -3.02282 953.359 1.25703 957.709 8.25751C962.056 15.2543 964.752 24.9359 964.752 35.6431C964.752 46.3501 962.056 56.0314 957.708 63.0283C953.359 70.0292 947.383 74.3091 940.824 74.3091C934.264 74.3091 928.288 70.0292 923.939 63.0283C919.591 56.0314 916.895 46.3501 916.895 35.6431Z" fill="url(#paint5_linear_2088_5362)" stroke="white" stroke-width="0.497164"/>
<path d="M1063.3 37.027C1063.3 43.5372 1061.66 49.42 1059.02 53.6665C1056.38 57.917 1052.76 60.4958 1048.81 60.4958C1044.86 60.4958 1041.24 57.917 1038.6 53.6665C1035.96 49.42 1034.32 43.5372 1034.32 37.027C1034.32 30.5167 1035.96 24.6345 1038.6 20.3879C1041.24 16.1375 1044.86 13.5587 1048.81 13.5587C1052.76 13.5587 1056.38 16.1375 1059.02 20.3879C1061.66 24.6345 1063.3 30.5167 1063.3 37.027Z" fill="url(#paint6_linear_2088_5362)" stroke="white" stroke-width="0.497164"/>
<path d="M932.553 35.6417C932.553 29.1314 934.193 23.2491 936.832 19.0024C939.473 14.752 943.089 12.1732 947.041 12.1732C950.993 12.1732 954.609 14.752 957.25 19.0024C959.889 23.2491 961.529 29.1314 961.529 35.6417C961.529 42.1519 959.889 48.0347 957.25 52.2812C954.609 56.5317 950.993 59.1105 947.041 59.1105C943.089 59.1105 939.473 56.5317 936.832 52.2812C934.193 48.0347 932.553 42.1519 932.553 35.6417Z" fill="url(#paint7_linear_2088_5362)" stroke="white" stroke-width="0.497164"/>
<path d="M1011.01 40.454C1009.6 40.437 1008.23 40.4481 1006.9 40.4854C1007.12 40.5057 1007.34 40.5267 1007.55 40.549C1008.76 40.6367 1010.32 40.8267 1012.04 41.1883C1020.31 42.7184 1026.73 45.987 1031.13 50.6304C1026.43 46.0629 1020.29 42.9123 1012.79 41.354C1011.11 41.0049 1009.36 40.7357 1007.55 40.5483C1007.33 40.526 1007.12 40.5051 1006.9 40.4854C1008.22 40.3977 1009.6 40.3878 1011.01 40.454Z" fill="url(#paint8_linear_2088_5362)"/>
<path d="M1043.98 -28.1431C1048.12 -13.176 1047.16 23.9885 1021.18 29.8833M1021.18 29.8833C1047.16 23.9885 1066.32 -10.1826 1066.32 -34.5905M1021.18 29.8833C1047.16 23.9885 1075.3 8.23846 1088.19 -21.926M1021.18 29.8833C1045.36 28.2713 1072.53 26.199 1102.93 5.47531M1021.18 35.1792C1045.36 33.5672 1068.16 35.8702 1107.07 41.6266M1006.91 40.475C1031.31 39.7847 1071.38 48.074 1099.93 75.015M1006.91 40.475C1031.08 38.8637 1072.3 63.5017 1082.66 99.8829M1006.91 40.475C1034.77 41.6266 1061.71 70.4096 1061.71 107.482M1006.91 40.475C1034.77 43.0323 1047.02 64.5838 1040.8 98.2257M1006.91 40.475C1034.77 43.0323 1045.2 62.9711 1033.21 89.4511M1005.99 40.475C1011.6 40.475 1038.96 43.7606 1025.15 74.155" stroke="white" stroke-width="0.497164"/>
<path d="M984.846 32.2206C986.258 32.2383 987.627 32.2278 988.949 32.1905C988.766 32.1741 988.584 32.1564 988.402 32.1381C986.972 32.0451 985.03 31.8125 982.896 31.3173C974.556 29.6346 968.198 26.1738 963.988 21.2969C968.509 26.0089 974.472 29.3149 981.812 31.0468C983.9 31.5394 986.099 31.9042 988.408 32.1387C988.588 32.1564 988.768 32.1741 988.949 32.1905C987.629 32.2783 986.26 32.2874 984.846 32.2206Z" fill="url(#paint9_linear_2088_5362)"/>
<path d="M951.871 100.572C947.727 85.6048 948.694 48.6707 974.667 42.7762M974.667 42.7762C948.694 48.6707 929.536 82.8419 929.536 107.249M974.667 42.7762C948.694 48.6707 920.556 64.4207 907.661 94.5851M974.667 42.7762C950.49 44.3875 923.319 46.46 892.924 67.1836M974.667 37.4796C950.49 39.0917 927.694 36.7892 888.779 31.0323M988.944 32.1838C964.536 32.8748 924.24 24.355 895.687 -2.58584M988.944 32.1838C964.766 33.7958 923.454 8.91772 913.092 -27.4638M988.944 32.1838C961.082 31.0323 934.08 2.01982 934.08 -35.0526M988.944 32.1838C961.082 29.6272 948.969 8.19419 955.186 -25.4481M988.944 32.1838C961.082 29.6272 950.904 10.1624 962.893 -16.3179M989.865 32.1838C984.253 32.1838 956.903 29.136 970.72 -1.25896" stroke="white" stroke-width="0.497164"/>
<g filter="url(#filter0_f_2088_5362)">
<path d="M1000.92 49.6823C1040.09 49.6823 1071.84 43.2905 1071.84 35.406C1071.84 27.5214 1040.09 21.1297 1000.92 21.1297C961.749 21.1297 929.996 27.5214 929.996 35.406C929.996 43.2905 961.749 49.6823 1000.92 49.6823Z" fill="white"/>
</g>
<g filter="url(#filter1_f_2088_5362)">
<path d="M998.616 46.2757C1024.81 46.2757 1046.05 40.7087 1046.05 33.8415C1046.05 26.9743 1024.81 21.4073 998.616 21.4073C972.419 21.4073 951.182 26.9743 951.182 33.8415C951.182 40.7087 972.419 46.2757 998.616 46.2757Z" fill="white"/>
</g>
</g>
</g>
<defs>
<filter id="filter0_f_2088_5362" x="905.138" y="-3.72853" width="191.558" height="78.269" filterUnits="userSpaceOnUse" color-interpolation-filters="sRGB">
<feFlood flood-opacity="0" result="BackgroundImageFix"/>
<feBlend mode="normal" in="SourceGraphic" in2="BackgroundImageFix" result="shape"/>
<feGaussianBlur stdDeviation="12.4291" result="effect1_foregroundBlur_2088_5362"/>
</filter>
<filter id="filter1_f_2088_5362" x="943.724" y="13.9498" width="109.784" height="39.7834" filterUnits="userSpaceOnUse" color-interpolation-filters="sRGB">
<feFlood flood-opacity="0" result="BackgroundImageFix"/>
<feBlend mode="normal" in="SourceGraphic" in2="BackgroundImageFix" result="shape"/>
<feGaussianBlur stdDeviation="3.72873" result="effect1_foregroundBlur_2088_5362"/>
</filter>
<linearGradient id="paint0_linear_2088_5362" x1="787.5" y1="37" x2="1261" y2="107.067" gradientUnits="userSpaceOnUse">
<stop stop-color="white"/>
<stop offset="1" stop-color="#7653E8" stop-opacity="0.74"/>
</linearGradient>
<linearGradient id="paint1_linear_2088_5362" x1="997.925" y1="-35.0663" x2="997.925" y2="107.697" gradientUnits="userSpaceOnUse">
<stop stop-color="#3D249A"/>
<stop offset="0.225069" stop-color="#5A2DE7"/>
<stop offset="0.540069" stop-color="#9FB0F5"/>
<stop offset="0.790069" stop-color="#5A2DE7"/>
<stop offset="0.985069" stop-color="#3D249A"/>
</linearGradient>
<linearGradient id="paint2_linear_2088_5362" x1="1060.56" y1="-18.4813" x2="1060.56" y2="92.045" gradientUnits="userSpaceOnUse">
<stop stop-color="#3D249A"/>
<stop offset="0.225069" stop-color="#5A2DE7"/>
<stop offset="0.540069" stop-color="#9FB0F5"/>
<stop offset="0.790069" stop-color="#5A2DE7"/>
<stop offset="0.985069" stop-color="#3D249A"/>
</linearGradient>
<linearGradient id="paint3_linear_2088_5362" x1="935.297" y1="91.1351" x2="935.297" y2="-19.3909" gradientUnits="userSpaceOnUse">
<stop stop-color="#3D249A"/>
<stop offset="0.225069" stop-color="#5A2DE7"/>
<stop offset="0.540069" stop-color="#9FB0F5"/>
<stop offset="0.790069" stop-color="#5A2DE7"/>
<stop offset="0.985069" stop-color="#3D249A"/>
</linearGradient>
<linearGradient id="paint4_linear_2088_5362" x1="1055.03" y1="-1.89976" x2="1055.03" y2="75.9289" gradientUnits="userSpaceOnUse">
<stop stop-color="#3D249A"/>
<stop offset="0.225069" stop-color="#5A2DE7"/>
<stop offset="0.540069" stop-color="#9FB0F5"/>
<stop offset="0.790069" stop-color="#5A2DE7"/>
<stop offset="0.985069" stop-color="#3D249A"/>
</linearGradient>
<linearGradient id="paint5_linear_2088_5362" x1="940.824" y1="74.5573" x2="940.824" y2="-3.27147" gradientUnits="userSpaceOnUse">
<stop stop-color="#3D249A"/>
<stop offset="0.225069" stop-color="#5A2DE7"/>
<stop offset="0.540069" stop-color="#9FB0F5"/>
<stop offset="0.790069" stop-color="#5A2DE7"/>
<stop offset="0.985069" stop-color="#3D249A"/>
</linearGradient>
<linearGradient id="paint6_linear_2088_5362" x1="1048.81" y1="13.3101" x2="1048.81" y2="60.744" gradientUnits="userSpaceOnUse">
<stop stop-color="#3D249A"/>
<stop offset="0.225069" stop-color="#5A2DE7"/>
<stop offset="0.540069" stop-color="#9FB0F5"/>
<stop offset="0.790069" stop-color="#5A2DE7"/>
<stop offset="0.985069" stop-color="#3D249A"/>
</linearGradient>
<linearGradient id="paint7_linear_2088_5362" x1="947.041" y1="59.3587" x2="947.041" y2="11.9246" gradientUnits="userSpaceOnUse">
<stop stop-color="#3D249A"/>
<stop offset="0.225069" stop-color="#5A2DE7"/>
<stop offset="0.540069" stop-color="#9FB0F5"/>
<stop offset="0.790069" stop-color="#5A2DE7"/>
<stop offset="0.985069" stop-color="#3D249A"/>
</linearGradient>
<linearGradient id="paint8_linear_2088_5362" x1="1056.53" y1="-35.0406" x2="1056.53" y2="107.492" gradientUnits="userSpaceOnUse">
<stop stop-color="#3D249A"/>
<stop offset="0.225069" stop-color="#5A2DE7"/>
<stop offset="0.540069" stop-color="#9FB0F5"/>
<stop offset="0.790069" stop-color="#5A2DE7"/>
<stop offset="0.985069" stop-color="#3D249A"/>
</linearGradient>
<linearGradient id="paint9_linear_2088_5362" x1="939.327" y1="107.717" x2="939.327" y2="-34.8159" gradientUnits="userSpaceOnUse">
<stop stop-color="#3D249A"/>
<stop offset="0.225069" stop-color="#5A2DE7"/>
<stop offset="0.540069" stop-color="#9FB0F5"/>
<stop offset="0.790069" stop-color="#5A2DE7"/>
<stop offset="0.985069" stop-color="#3D249A"/>
</linearGradient>
<clipPath id="clip0_2088_5362">
<rect width="1248" height="73" rx="24" fill="white"/>
</clipPath>
</defs>
</svg>
